<svg width="20" height="20" viewBox="0 0 20 20" fill="none" xmlns="http://www.w3.org/2000/svg">
<path d="M2.5 16.1147L4.96402 0.383909C5.00193 0.156476 5.22937 -0.0330515 5.45682 0.00485401C5.60845 0.0427595 5.72218 0.11857 5.79799 0.232287L8.33783 5.00838L9.36134 3.0752C9.47506 2.84777 9.74042 2.77195 9.96787 2.88567C10.0437 2.92358 10.1195 2.99939 10.1574 3.0752L17.0188 16.1526H2.5V16.1147Z" fill="#3DCFB6" fill-opacity="0.5"/>
<path d="M10.9914 10.0119L8.33783 5.00836L2.5 16.1147L10.9914 10.0119Z" fill="#3DCFB6" fill-opacity="0.5"/>
<path d="M17.0187 16.1147L15.1234 4.43981C15.0854 4.17447 14.858 4.02285 14.5926 4.06076C14.5168 4.06076 14.4031 4.13657 14.3273 4.17447L2.5 16.1147L9.09598 19.8294C9.51297 20.0569 10.0058 20.0569 10.4228 19.8294L17.0187 16.1147Z" fill="#3DCFB6"/>
</svg>
